<?xml version="1.0" standalone="no"?><!DOCTYPE svg PUBLIC "-//W3C//DTD SVG 1.1//EN" "http://www.w3.org/Graphics/SVG/1.1/DTD/svg11.dtd"><svg t="1565854446347" class="icon" viewBox="0 0 1024 1024" version="1.1" xmlns="http://www.w3.org/2000/svg" p-id="7192" xmlns:xlink="http://www.w3.org/1999/xlink" width="200" height="200"><defs><style type="text/css"></style></defs><path d="M558.420659 533.422141m-407.707049 0a407.707049 407.707049 0 1 0 815.414098 0 407.707049 407.707049 0 1 0-815.414098 0Z" fill="#E9EAEB" p-id="7193"></path><path d="M549.750653 247.239681v-34.680025a69.360051 69.360051 0 0 0-69.360051-69.360051h-346.800254a69.360051 69.360051 0 0 0-69.360051 69.360051v34.680025z" fill="#A3D4FF" p-id="7194"></path><path d="M567.090665 264.579694h-520.200381v-52.020038a86.700064 86.700064 0 0 1 86.700064-86.700064h346.800254a86.700064 86.700064 0 0 1 86.700063 86.700064z m-485.737105-34.680026h451.05708v-17.340012a52.092288 52.092288 0 0 0-52.020038-52.020038h-346.800254a52.092288 52.092288 0 0 0-52.020038 52.020038z" fill="#2A5082" p-id="7195"></path><path d="M64.013547 854.429126v69.360051c0 33.162774 36.125026 69.360051 69.360051 69.36005h346.800254c33.162774 0 69.432301-36.125026 69.36005-69.36005v-69.360051z" fill="#A3D4FF" p-id="7196"></path><path d="M480.390602 1010.56149h-346.800254c-42.988781 0-86.700064-43.783532-86.700064-86.700063v-86.700064h520.200381v86.700064a94.358569 94.358569 0 0 1-86.700063 86.700063z m-399.037042-138.792351v52.020038c0 23.336767 28.900021 52.020038 52.020038 52.020038h346.800254c23.336767 0 52.020038-28.900021 52.020038-52.020038v-52.020038z" fill="#2A5082" p-id="7197"></path><path d="M64.013547 247.239681h485.737106v607.189445H64.013547z" fill="#FFFFFF" p-id="7198"></path><path d="M567.090665 871.769139H46.673534V229.899668h520.417131v121.380089h-34.680025v-86.700063H81.35356v572.437169l451.05708 0.07225V472.732096h34.680025v399.037043zM272.165949 906.449164h86.772314v34.680025H272.165949z" fill="#2A5082" p-id="7199"></path><path d="M844.675369 73.767304v278.451704a51.153037 51.153037 0 0 1-51.153038 51.153037H512.975376L407.273548 537.468144a17.340013 17.340013 0 0 1-30.995272-10.765258V403.372045h-34.391026a52.525788 52.525788 0 0 1-52.309038-52.309038V73.767304A52.020038 52.020038 0 0 1 341.59825 21.675016h451.057081a52.020038 52.020038 0 0 1 52.020038 52.092288z" fill="#FFFFFF" p-id="7200"></path><path d="M393.835038 561.527411a35.330276 35.330276 0 0 1-11.560008-1.950751 34.318775 34.318775 0 0 1-23.336767-32.801524V420.712058h-17.051013a69.793551 69.793551 0 0 1-69.649051-69.721301V73.767304A69.504551 69.504551 0 0 1 341.59825 4.335003h451.057081a69.504551 69.504551 0 0 1 69.36005 69.432301v278.451704a68.5653 68.5653 0 0 1-68.49305 68.49305H521.284132L420.928808 548.233402a34.246525 34.246525 0 0 1-27.09377 13.294009zM341.59825 39.015029a34.752275 34.752275 0 0 0-34.680025 34.680025v277.295703a35.041276 35.041276 0 0 0 34.969025 34.969026h51.731038v140.815353l110.831581-140.743103h289.000212a33.813025 33.813025 0 0 0 33.813025-33.813025V73.767304a34.752275 34.752275 0 0 0-34.680025-34.680025z" fill="#2A5082" p-id="7201"></path><path d="M480.390602 195.147393h34.680025v34.680025h-34.680025zM549.750653 195.147393h34.680025v34.680025h-34.680025zM619.182954 195.147393h34.680025v34.680025h-34.680025z" fill="#2A5082" p-id="7202"></path></svg>