<svg version="1.1" xmlns="http://www.w3.org/2000/svg" xmlns:xlink="http://www.w3.org/1999/xlink" width="48" height="48"><defs><linearGradient x1="0" y1="0" x2="0" y2="0" gradientUnits="userSpaceOnUse" id="color-1"><stop offset="0" stop-color="#000000" stop-opacity="0.2"></stop><stop offset="1" stop-color="#000000" stop-opacity="0"></stop></linearGradient><filter id="dropshadow-base"><feColorMatrix type="matrix" values="0 0 0 0 0  0 0 0 0 0  0 0 0 0 0  0 0 0 .8 0"></feColorMatrix> <feOffset dx="0" dy="1"></feOffset> <feGaussianBlur stdDeviation="1"></feGaussianBlur> <feComposite in="SourceGraphic"></feComposite></filter><filter id="dropshadow-banner" x="-10%" y="-10%" width="120%" height="130%"><feColorMatrix type="matrix" values="0 0 0 0 0  0 0 0 0 0  0 0 0 0 0  0 0 0 .4 0"></feColorMatrix> <feOffset dx="0" dy="1"></feOffset> <feGaussianBlur stdDeviation="0.5"></feGaussianBlur> <feComposite in="SourceGraphic"></feComposite></filter></defs><g fill="none" fill-rule="nonzero" stroke="none" stroke-width="none" stroke-linecap="butt" stroke-linejoin="miter" stroke-miterlimit="10" stroke-dasharray="" stroke-dashoffset="0" font-family="none" font-weight="none" font-size="none" text-anchor="none" style="mix-blend-mode: normal"><path d="M2,24c0,-12.15026 9.84974,-22 22,-22c12.15026,0 22,9.84974 22,22c0,12.15026 -9.84974,22 -22,22c-12.15026,0 -22,-9.84974 -22,-22z" id="base 1 5" fill="#35c0f7" stroke-width="1"></path><path d="" fill="url(#color-1)" stroke-width="1"></path><path d="M36.06167,7.92868c2.78725,0.20363 1.30572,11.07521 0.19337,12.38838c0.98737,1.91617 1.51002,4.05393 1.51002,6.27247c0,3.66296 -1.42473,7.10569 -4.01352,9.69447c-2.59328,2.58879 -6.03601,4.01352 -9.69447,4.01352c-3.66296,0 -7.10569,-1.42473 -9.69447,-4.01352c-2.58879,-2.58879 -4.01352,-6.03152 -4.01352,-9.69447c0,-2.13782 0.4853,-4.20063 1.40409,-6.06244c-0.15491,-0.14976 -0.30039,-0.41877 -0.45127,-0.82302c-0.18877,-0.50787 -0.37304,-1.21799 -0.53933,-2.04946c-0.35506,-1.79328 -0.54832,-3.86071 -0.52585,-5.53713c0.04045,-2.80452 0.66517,-4.32813 1.80226,-4.40903c2.8271,-0.20492 7.05903,4.91371 7.79287,5.83249c1.34703,-0.43414 2.76872,-0.65941 4.22523,-0.65941c1.53903,0 3.03919,0.25152 4.45346,0.73521c0.83409,-1.03 4.9074,-5.87691 7.55115,-5.68807z" fill="none" stroke-width="0"></path><g stroke-width="1"><path d="M28.30116,13.80739c0,0 4.74611,-6.08995 7.70344,-5.87871c2.95284,0.21573 1.11462,12.40461 0,12.51697" fill="#f4b35d"></path><path d="M36.02708,20.67038l-0.04494,-0.44495c-0.00899,0 -0.01348,0.00449 -0.01348,0.00449c0,0 0.21573,-0.10787 0.52585,-1.14608c0.21124,-0.71012 0.41349,-1.66743 0.5663,-2.70115c0.35955,-2.40901 0.41349,-4.75061 0.14382,-6.27422c-0.15281,-0.86293 -0.48989,-1.89665 -1.21799,-1.95058c-2.80003,-0.20225 -7.46075,5.73039 -7.51018,5.78882l-0.35506,-0.27416c0.19775,-0.25169 4.85847,-6.18433 7.8967,-5.9641c1.14158,0.0809 1.76181,1.609 1.80226,4.40903c0.02247,1.67642 -0.17079,3.74835 -0.52585,5.53713c-0.1618,0.83147 -0.35057,1.53709 -0.53933,2.04946c-0.22922,0.6427 -0.45843,0.93933 -0.7281,0.9663z" fill="#000000"></path><path d="M29.85174,14.4411c0,0 2.818,-3.62251 4.65173,-3.48767c1.83373,0.13483 0.9708,7.47423 0.27865,7.54614" fill="#ffffff"></path><path d="M19.70333,13.80739c0,0 -4.74611,-6.08995 -7.70344,-5.87871c-2.95284,0.21573 -1.11462,12.40461 0,12.51697" fill="#f4b35d"></path><path d="M11.97741,20.67038c-0.26967,-0.02697 -0.49439,-0.32809 -0.73259,-0.9663c-0.18877,-0.50787 -0.37304,-1.21799 -0.53933,-2.04946c-0.35506,-1.79328 -0.54832,-3.86071 -0.52585,-5.53713c0.04045,-2.80452 0.66517,-4.32813 1.80226,-4.40903c3.03823,-0.22023 7.69895,5.70792 7.8967,5.9641l-0.35506,0.27416c-0.04494,-0.05843 -4.70566,-5.99107 -7.51018,-5.78882c-0.7281,0.05393 -1.06518,1.09215 -1.21799,1.95058c-0.26967,1.51912 -0.21573,3.86521 0.14382,6.27422c0.15281,1.03372 0.35506,1.99103 0.5663,2.70115c0.3191,1.03372 0.53034,1.14158 0.53034,1.14158c0,0 -0.00449,0 -0.01348,-0.00449z" fill="#000000"></path><path d="M18.15275,14.4411c0,0 -2.818,-3.62251 -4.65173,-3.48767c-1.83373,0.13483 -0.9708,7.47423 -0.27865,7.54614" fill="#ffffff"></path><path d="M24,26.58953M10.51673,26.58953c0,7.44661 6.03667,13.48327 13.48327,13.48327c7.44661,0 13.48327,-6.03667 13.48327,-13.48327c0,-7.44661 -6.03667,-13.48327 -13.48327,-13.48327c-7.44661,0 -13.48327,6.03667 -13.48327,13.48327z" fill="#f4b35d"></path><path d="M24,40.29753c-3.66296,0 -7.10569,-1.42473 -9.69447,-4.01352c-2.58879,-2.58879 -4.01352,-6.03152 -4.01352,-9.69447c0,-3.66296 1.42473,-7.10569 4.01352,-9.69447c2.58879,-2.58879 6.03152,-4.01352 9.69447,-4.01352c3.66296,0 7.10569,1.42473 9.69447,4.01352c2.58879,2.58879 4.01352,6.03152 4.01352,9.69447c0,3.66296 -1.42473,7.10569 -4.01352,9.69447c-2.59328,2.58879 -6.03601,4.01352 -9.69447,4.01352zM24,13.33098c-7.31243,0 -13.25855,5.94612 -13.25855,13.25855c0,7.31243 5.94612,13.25855 13.25855,13.25855c7.31243,0 13.25855,-5.94612 13.25855,-13.25855c0,-7.31243 -5.95062,-13.25855 -13.25855,-13.25855z" fill="#000000"></path><path d="M18.21571,21.02952c-0.19,0.3353 -0.11436,0.78746 0.19843,1.18612c0.31279,0.39866 0.81519,0.68326 1.31794,0.74657c0.50275,0.06331 0.92946,-0.10428 1.11936,-0.43964c0.19,-0.3353 0.11436,-0.78746 -0.19843,-1.18612c-0.31279,-0.39866 -0.81519,-0.68326 -1.31794,-0.74657c-0.50275,-0.06331 -0.92946,0.10428 -1.11936,0.43964z" fill="#ffffff"></path><path d="M29.62283,21.03297c-0.18994,-0.33531 -0.61664,-0.50286 -1.11936,-0.43954c-0.50272,0.06332 -1.00509,0.3479 -1.31787,0.74653c-0.31278,0.39863 -0.38845,0.85075 -0.19851,1.18606c0.29362,0.51834 1.12168,0.60431 1.84952,0.19202c0.72784,-0.41229 1.07984,-1.16672 0.78622,-1.68507z" fill="#ffffff"></path><path d="M37.45631,27.37156c-0.4045,7.07872 -6.27422,12.69675 -13.45631,12.69675c-7.1731,0 -13.03833,-5.60455 -13.4608,-12.67428c0,0 5.37983,-1.67642 9.89223,-0.05843c0,0 3.54161,-1.6944 7.12816,0c0,0.00449 3.05621,-1.63148 9.89672,0.03596z" fill="#ffffff"></path><path d="M24,40.18067c-7.18659,0 -13.14619,-5.61354 -13.57316,-12.77765l-0.00449,-0.08989l0.08539,-0.02697c0.01348,-0.00449 1.37529,-0.42248 3.27644,-0.63821c1.74384,-0.19775 4.30566,-0.25618 6.64725,0.5663c0.19326,-0.08989 1.02023,-0.43596 2.20676,-0.62473c1.22248,-0.19326 3.0607,-0.2427 4.92589,0.62023c0.19775,-0.09438 0.9663,-0.42248 2.37306,-0.59776c1.48765,-0.18427 4.00453,-0.22023 7.55513,0.6427l0.08989,0.02247l-0.00449,0.09438c-0.41798,7.18659 -6.38208,12.80911 -13.57766,12.80911zM10.65605,27.47943c0.46293,7.00231 6.30568,12.47652 13.34395,12.47652c7.04726,0 12.89001,-5.4832 13.33945,-12.499c-3.46071,-0.83147 -5.91466,-0.79551 -7.36636,-0.62023c-1.58653,0.19326 -2.35508,0.59326 -2.36407,0.59776l-0.04944,0.02697l-0.04944,-0.02247c-1.82474,-0.86293 -3.63599,-0.81799 -4.836,-0.62922c-1.30338,0.20674 -2.18878,0.62473 -2.19328,0.62922l-0.04045,0.01798l-0.04494,-0.01798c-2.31013,-0.82697 -4.85398,-0.76855 -6.58433,-0.57079c-1.6135,0.18427 -2.83149,0.51686 -3.15509,0.61124z" fill="#000000"></path><path d="M23.67191,26.86819l0.33259,0.28764c0.0809,0.06742 0.27416,0.06742 0.35506,0l0.33259,-0.28764c0.0809,-0.06742 -0.01798,-0.15281 -0.17528,-0.15281h-0.66068c-0.1618,0 -0.26068,0.08539 -0.18427,0.15281z" fill="#000000"></path><path d="M24.18427,27.27718c-0.08539,0 -0.17079,-0.02247 -0.22023,-0.06742l-0.33259,-0.28764c-0.04494,-0.04045 -0.06292,-0.09438 -0.04494,-0.14382c0.02697,-0.07641 0.13483,-0.12584 0.26517,-0.12584h0.66068c0.13034,0 0.2382,0.04944 0.26517,0.12584c0.01798,0.04944 0.00449,0.10337 -0.04494,0.14382l-0.33259,0.28764c-0.04944,0.04494 -0.13483,0.06742 -0.21573,0.06742zM23.71685,26.81875l0.33259,0.28764c0.05393,0.04494 0.21124,0.04494 0.26517,0l0.33259,-0.28764c-0.01348,-0.01348 -0.05843,-0.03596 -0.13483,-0.03596h-0.66068c-0.07641,0 -0.12135,0.02247 -0.13483,0.03596z" fill="#000000"></path><path d="M22.33706,29.32214c-0.31461,0 -0.60225,-0.05393 -0.81799,-0.1573c-0.39101,-0.19326 -0.51236,-0.54383 -0.3191,-0.93484l0.20225,0.09888c-0.13933,0.28315 -0.06292,0.49888 0.21573,0.63371c0.62023,0.30562 1.99552,0.11686 2.36407,-0.62922c0.04494,-0.08989 0.13034,-0.14832 0.2382,-0.15281c0.10337,-0.00449 0.19775,0.03596 0.2382,0.10337c0.39551,0.63821 1.66743,0.809 2.28766,0.46293c0.28315,-0.1573 0.35506,-0.38203 0.21573,-0.66517l0.20225,-0.09888c0.19326,0.39551 0.0809,0.74607 -0.31012,0.96181c-0.33708,0.18427 -0.85844,0.24719 -1.36631,0.1618c-0.55281,-0.09438 -0.99776,-0.34607 -1.21799,-0.69664c-0.00899,-0.00449 -0.03596,-0.00899 -0.05843,-0.00449c-0.01798,0.00449 -0.02697,0.01348 -0.03146,0.02247c-0.29663,0.61124 -1.1281,0.89439 -1.84271,0.89439z" fill="#000000"></path><path d="M12.68304,29.24124c0,0.52871 1.15703,0.95731 2.58429,0.95731c1.42727,0 2.58429,-0.4286 2.58429,-0.95731c0,-0.52871 -1.15703,-0.95731 -2.58429,-0.95731c-1.42727,0 -2.58429,0.4286 -2.58429,0.95731z" fill="#ffd4dc"></path><path d="M30.14388,29.17832c0,0.52871 1.15703,0.95731 2.58429,0.95731c1.42727,0 2.58429,-0.4286 2.58429,-0.95731c0,-0.52871 -1.15703,-0.95731 -2.58429,-0.95731c-1.42727,0 -2.58429,0.4286 -2.58429,0.95731z" fill="#ffd4dc"></path><path d="M17.21342,26.58953M14.74149,26.58953c0,1.36521 1.10672,2.47193 2.47193,2.47193c1.36521,0 2.47193,-1.10672 2.47193,-2.47193c0,-1.36521 -1.10672,-2.47193 -2.47193,-2.47193c-1.36521,0 -2.47193,1.10672 -2.47193,2.47193z" fill="#000000"></path><path d="M17.21342,29.12888c-1.40226,0 -2.53935,-1.13709 -2.53935,-2.53935c0,-1.40226 1.13709,-2.53935 2.53935,-2.53935c1.40226,0 2.53935,1.13709 2.53935,2.53935c0,1.40226 -1.14158,2.53935 -2.53935,2.53935zM17.21342,24.18502c-1.32586,0 -2.40452,1.07866 -2.40452,2.40452c0,1.32586 1.07866,2.40452 2.40452,2.40452c1.32586,0 2.40452,-1.07866 2.40452,-2.40452c0,-1.32586 -1.07866,-2.40452 -2.40452,-2.40452z" fill="#000000"></path><path d="M16.14375,25.90638M15.46059,25.90638c0,0.37729 0.30586,0.68315 0.68315,0.68315c0.37729,0 0.68315,-0.30586 0.68315,-0.68315c0,-0.37729 -0.30586,-0.68315 -0.68315,-0.68315c-0.37729,0 -0.68315,0.30586 -0.68315,0.68315z" fill="#ffffff"></path><path d="M18.97074,27.37606c0.10787,0.18877 -0.05393,0.66517 -0.62473,1.00226c-0.57079,0.33708 -1.18653,0.28764 -1.29889,0.10337c-0.11236,-0.18427 0.43596,-0.07191 1.01125,-0.4045c0.57529,-0.33259 0.8045,-0.8854 0.91237,-0.70113z" fill="#565656"></path><path d="M30.7731,26.58953M28.30116,26.58953c0,1.36521 1.10672,2.47193 2.47193,2.47193c1.36521,0 2.47193,-1.10672 2.47193,-2.47193c0,-1.36521 -1.10672,-2.47193 -2.47193,-2.47193c-1.36521,0 -2.47193,1.10672 -2.47193,2.47193z" fill="#000000"></path><path d="M30.7731,29.12888c-1.40226,0 -2.53935,-1.13709 -2.53935,-2.53935c0,-1.40226 1.13709,-2.53935 2.53935,-2.53935c1.40226,0 2.53935,1.13709 2.53935,2.53935c0,1.40226 -1.13709,2.53935 -2.53935,2.53935zM30.7731,24.18502c-1.32586,0 -2.40452,1.07866 -2.40452,2.40452c0,1.32586 1.07866,2.40452 2.40452,2.40452c1.32586,0 2.40452,-1.07866 2.40452,-2.40452c0,-1.32586 -1.07866,-2.40452 -2.40452,-2.40452z" fill="#000000"></path><path d="M29.70792,25.90638M29.02477,25.90638c0,0.37729 0.30586,0.68315 0.68315,0.68315c0.37729,0 0.68315,-0.30586 0.68315,-0.68315c0,-0.37729 -0.30586,-0.68315 -0.68315,-0.68315c-0.37729,0 -0.68315,0.30586 -0.68315,0.68315z" fill="#ffffff"></path><path d="M32.53491,27.37606c0.10787,0.18877 -0.05393,0.66517 -0.62473,1.00226c-0.57079,0.33708 -1.18653,0.28764 -1.29889,0.10337c-0.11236,-0.18427 0.43596,-0.07191 1.01125,-0.4045c0.57529,-0.33259 0.8045,-0.8854 0.91237,-0.70113z" fill="#565656"></path></g><path d="M2,24c0,-12.15026 9.84974,-22 22,-22c12.15026,0 22,9.84974 22,22c0,12.15026 -9.84974,22 -22,22c-12.15026,0 -22,-9.84974 -22,-22z" id="base 1 1 1" fill="none" stroke-width="1"></path><g fill="#000000" stroke-width="1" font-family="Roboto, sans-serif" font-weight="400" font-size="14" text-anchor="start"></g><rect x="2" y="2" width="44" height="22" fill="none" stroke-width="1"></rect><path d="M2,24v-22h44v22z" fill="none" stroke-width="1"></path><path d="M2,24v-22h44v22z" fill="none" stroke-width="1"></path><path d="M2,24v-22h44v22z" fill="none" stroke-width="1"></path><path d="M2,24v-22h44v22z" fill="none" stroke-width="1"></path></g></svg>