<?xml version="1.0" standalone="no"?><!DOCTYPE svg PUBLIC "-//W3C//DTD SVG 1.1//EN" "http://www.w3.org/Graphics/SVG/1.1/DTD/svg11.dtd"><svg t="1565854365795" class="icon" viewBox="0 0 1024 1024" version="1.1" xmlns="http://www.w3.org/2000/svg" p-id="6724" xmlns:xlink="http://www.w3.org/1999/xlink" width="200" height="200"><defs><style type="text/css"></style></defs><path d="M495.418613 526.197135m-396.941791 0a396.941791 396.941791 0 1 0 793.883582 0 396.941791 396.941791 0 1 0-793.883582 0Z" fill="#E9EAEB" p-id="6725"></path><path d="M407.634799 548.450152V320.284485c0-48.118535 42.844281-87.278064 90.962816-87.278064S589.560432 272.238199 589.560432 320.284485v228.165667h99.199322V325.125238c0-102.884075-87.350314-186.549637-190.234389-186.549637S308.363226 222.457913 308.363226 325.125238v223.324914z" fill="#FFFFFF" p-id="6726"></path><path d="M705.305017 564.923164H573.01517V320.284485c0-37.642278-34.752275-70.732802-74.417555-70.732802s-74.417555 33.018274-74.417554 70.732802v244.638679H291.817964V325.125238c0-109.82008 94.719819-202.878149 206.707401-202.878148S705.305017 215.305158 705.305017 325.125238z m-99.199323-33.018274H671.925492V325.125238c0-91.902067-79.475058-169.787624-173.400127-169.787624S325.125238 233.223171 325.125238 325.125238v206.779652h66.181049V320.284485C391.089536 264.073943 440.291822 216.750159 498.525365 216.750159s107.508079 47.540535 107.508079 103.751076z" fill="#2A5082" p-id="6727"></path><path d="M242.182177 465.723841m33.090525 0l446.577577 0q33.090524 0 33.090524 33.090524l0 297.670218q0 33.090524-33.090524 33.090525l-446.577577 0q-33.090524 0-33.090525-33.090525l0-297.670218q0-33.090524 33.090525-33.090524Z" fill="#A3D4FF" p-id="6728"></path><path d="M721.850279 846.12037H275.272702a49.708036 49.708036 0 0 1-49.635787-49.635787V498.525365a49.708036 49.708036 0 0 1 49.635787-49.635786h446.577577a49.635786 49.635786 0 0 1 49.635786 49.635786v297.742468a49.635786 49.635786 0 0 1-49.635786 49.852537zM275.272702 482.269103A16.545262 16.545262 0 0 0 258.727439 498.525365v297.742468a16.545262 16.545262 0 0 0 16.545263 16.545262h446.577577a16.545262 16.545262 0 0 0 16.545262-16.545262V498.525365a16.545262 16.545262 0 0 0-16.545262-16.545262z" fill="#2A5082" p-id="6729"></path><path d="M284.376208 746.921047h33.090525v33.090524h-33.090525zM284.376208 515.359627h33.090525V713.830523h-33.090525z" fill="#2A5082" p-id="6730"></path><path d="M1008.971989 567.307416L976.098215 563.550413c1.372751-12.571509 2.167502-22.903267 2.601002-32.657024A469.625344 469.625344 0 0 0 528.292387 42.627531l1.372751-33.018274A502.788118 502.788118 0 0 1 1011.500741 532.33839c0 10.476258-1.083751 21.602766-2.528752 34.969026zM64.085797 745.548296A502.788118 502.788118 0 0 1 307.351725 51.442038l13.29401 30.272772a469.625344 469.625344 0 0 0-227.298667 648.444225zM509.073873 1014.751993q-10.042757 0-20.157765-0.4335a500.331616 500.331616 0 0 1-277.512453-97.248571l19.796514-26.58802a469.625344 469.625344 0 0 0 675.176745-127.449093l27.96077 17.701263a504.81112 504.81112 0 0 1-425.263811 234.017921z" fill="#BCC0C4" p-id="6731"></path><path d="M532.48289 730.375785V655.01898a66.181048 66.181048 0 1 0-66.181048 0v75.356805a33.090524 33.090524 0 0 0 33.090524 33.090524 33.090524 33.090524 0 0 0 33.090524-33.090524z" fill="#FFFFFF" p-id="6732"></path><path d="M499.392366 780.300572a49.635786 49.635786 0 0 1-49.635787-49.635787v-66.470049a82.726311 82.726311 0 1 1 99.199323 0v66.470049a49.635786 49.635786 0 0 1-49.563536 49.635787z m0-231.56142a54.25979 54.25979 0 0 0-12.210259 1.445001 49.419036 49.419036 0 0 0-12.499259 90.529316l8.236506 4.768504v84.821562a16.545262 16.545262 0 0 0 33.090524 0V645.481973l8.236506-4.768504a49.491286 49.491286 0 0 0-24.709518-92.335567z" fill="#2A5082" p-id="6733"></path></svg>