<?xml version="1.0" standalone="no"?><!DOCTYPE svg PUBLIC "-//W3C//DTD SVG 1.1//EN" "http://www.w3.org/Graphics/SVG/1.1/DTD/svg11.dtd"><svg t="1565854573834" class="icon" viewBox="0 0 1024 1024" version="1.1" xmlns="http://www.w3.org/2000/svg" p-id="7805" xmlns:xlink="http://www.w3.org/1999/xlink" width="200" height="200"><defs><style type="text/css"></style></defs><path d="M887.66415 854.212376l-23.698017-21.097016c10.837508-12.210259 21.169266-25.070768 30.706272-38.292528l25.721019 18.640514a477.883525 477.883525 0 0 1-32.729274 40.74903zM943.585691 778.56657l-27.16602-16.473012a487.326607 487.326607 0 0 0 24.348268-45.445283l28.900021 13.51076a517.382629 517.382629 0 0 1-26.082269 48.407535zM983.828971 696.70726l-29.622522-11.415508c5.780004-15.028011 10.909758-30.489522 15.172511-46.095534l30.634022 8.453256c-4.624003 16.545262-10.187257 33.090524-16.184011 49.057786zM1007.888238 614.84795l-31.067523-6.430254a484.870105 484.870105 0 0 0-105.918577-415.004304l24.203768-20.591265A516.443378 516.443378 0 0 1 1007.888238 614.84795zM138.142101 208.802653l-24.998518-19.579764a526.341636 526.341636 0 0 1 42.049531-47.396035l22.469766 22.469766a493.973612 493.973612 0 0 0-39.520779 44.506033zM88.795315 285.676709l-28.177521-14.45001a518.68313 518.68313 0 0 1 28.900022-49.130036L115.600085 239.508925a488.193608 488.193608 0 0 0-26.80477 46.167784zM57.149792 362.478515l-30.272772-9.537006a520.778381 520.778381 0 0 1 18.207013-49.130036l28.900021 12.571509a488.265858 488.265858 0 0 0-16.834262 46.095533zM111.843082 827.696606a516.876879 516.876879 0 0 1-93.925069-442.025824l30.850773 7.225006a485.303605 485.303605 0 0 0 88.289564 415.004304z" fill="#BCC0C4" p-id="7806"></path><path d="M502.860368 524.390884m-372.954773 0a372.954773 372.954773 0 1 0 745.909546 0 372.954773 372.954773 0 1 0-745.909546 0Z" fill="#E9EAEB" p-id="7807"></path><path d="M889.470401 736.372539l-27.38277-16.111761a403.661046 403.661046 0 0 0 3.179003-402.360545l27.59952-15.606012a435.451069 435.451069 0 0 1-3.395753 434.078318zM119.790588 697.574261A435.378819 435.378819 0 0 1 115.600085 345.283003l28.900021 12.499259a403.661046 403.661046 0 0 0 4.190503 326.570239z" fill="#BCC0C4" p-id="7808"></path><path d="M225.131165 291.528964V881.450646a31.717773 31.717773 0 0 0 31.717773 31.717773h507.845622a31.717773 31.717773 0 0 0 31.717773-31.717773V151.725111a31.717773 31.717773 0 0 0-31.717773-31.717773h-367.752769a31.717773 31.717773 0 0 0-22.469767 9.320257L234.451422 269.059197a31.717773 31.717773 0 0 0-9.320257 22.469767z" fill="#A3D4FF" p-id="7809"></path><path d="M764.69456 929.06343H256.848938A47.685035 47.685035 0 0 1 209.525153 881.450646V291.528964a47.251535 47.251535 0 0 1 13.944261-33.668525L363.345516 117.767586a47.901785 47.901785 0 0 1 33.668525-13.94426h367.752769a47.685035 47.685035 0 0 1 47.540535 47.901785v729.725535a47.685035 47.685035 0 0 1-47.612785 47.612784zM397.014041 135.541099a15.967262 15.967262 0 0 0-11.198758 4.624004L245.65018 280.257955a15.750512 15.750512 0 0 0-4.624003 11.198758V881.450646a15.895012 15.895012 0 0 0 15.895011 15.895011h507.845622A15.895012 15.895012 0 0 0 780.300572 881.450646V151.725111a15.895012 15.895012 0 0 0-15.895012-15.895012z" fill="#2A5082" p-id="7810"></path><path d="M336.251746 310.097227m31.717774 0l285.676709 0q31.717773 0 31.717773 31.717773l0 412.692303q0 31.717773-31.717773 31.717773l-285.676709 0q-31.717773 0-31.717774-31.717773l0-412.692303q0-31.717773 31.717774-31.717773Z" fill="#FFFFFF" p-id="7811"></path><path d="M653.646229 801.975587H367.96952a47.685035 47.685035 0 0 1-47.612785-47.612784v-412.547803a47.685035 47.685035 0 0 1 47.612785-47.612785h285.676709a47.685035 47.685035 0 0 1 47.612785 47.612785v412.620053a47.685035 47.685035 0 0 1-47.612785 47.540534zM367.96952 325.992239a15.895012 15.895012 0 0 0-15.895012 15.895011v412.620053a15.895012 15.895012 0 0 0 15.895012 15.895011h285.676709a15.895012 15.895012 0 0 0 15.895011-15.895011V341.815a15.895012 15.895012 0 0 0-15.895011-15.895011z" fill="#2A5082" p-id="7812"></path><path d="M431.477316 310.097227h31.717773v158.733366h-31.717773zM542.525647 310.097227h31.717774v158.733366h-31.717774zM542.525647 627.49171h31.717774v158.733366h-31.717774z" fill="#2A5082" p-id="7813"></path><path d="M336.251746 452.935582h349.112256v31.717773H336.251746zM463.195089 786.225076h-31.717773V611.668948h253.886686v31.717773H463.195089v142.838355z" fill="#2A5082" p-id="7814"></path></svg>